<svg xmlns="http://www.w3.org/2000/svg" viewBox="0 0 500 500" width="500" height="500">
  <rect width="500" height="500" fill="#0B101E" rx="40" ry="40"/>
  
  <circle cx="250" cy="230" r="170" fill="none" stroke="#00d2ff" stroke-width="1.5" stroke-dasharray="4 12" opacity="0.6" />
  <circle cx="250" cy="230" r="150" fill="none" stroke="#3a7bd5" stroke-width="1" opacity="0.4" />
  <circle cx="250" cy="230" r="190" fill="none" stroke="#00d2ff" stroke-width="3" opacity="0.15" />

  <path d="M 60,230 L 440,230 M 250,40 L 250,420 M 122,102 L 378,358 M 122,358 L 378,102" stroke="#ffffff" stroke-width="1" opacity="0.1" />

  <circle cx="122" cy="102" r="3" fill="#00d2ff"/>
  <circle cx="378" cy="102" r="3" fill="#00d2ff"/>
  <circle cx="122" cy="358" r="3" fill="#00d2ff"/>
  <circle cx="378" cy="358" r="3" fill="#00d2ff"/>
  <circle cx="250" cy="40" r="4" fill="#00d2ff"/>
  <circle cx="60" cy="230" r="4" fill="#00d2ff"/>
  <circle cx="440" cy="230" r="4" fill="#00d2ff"/>

  <g transform="translate(160, 110)">
    <rect x="20" y="0" width="35" height="200" fill="url(#grad1)" rx="4" ry="4"/>
    <rect x="20" y="0" width="130" height="35" fill="url(#grad1)" rx="4" ry="4"/>
    <rect x="20" y="80" width="90" height="35" fill="url(#grad1)" rx="4" ry="4"/>
    
    <rect x="35" y="15" width="100" height="3" fill="#ffffff" opacity="0.75"/>
    <rect x="35" y="95" width="60" height="3" fill="#ffffff" opacity="0.75"/>
    <rect x="28" y="50" width="3" height="130" fill="#ffffff" opacity="0.75"/>
  </g>

  <text x="250" y="440" font-family="'Courier New', Courier, monospace" font-size="34" font-weight="bold" fill="#00d2ff" text-anchor="middle" letter-spacing="10">FIONA</text>
  
  <text x="250" y="465" font-family="Arial, sans-serif" font-size="12" fill="#3a7bd5" text-anchor="middle" letter-spacing="4" opacity="0.8">HOST CONTROL</text>
  
  <defs>
    <linearGradient id="grad1" x1="0%" y1="0%" x2="100%" y2="100%">
      <stop offset="0%" style="stop-color:#00d2ff;stop-opacity:1" />
      <stop offset="100%" style="stop-color:#3a7bd5;stop-opacity:1" />
    </linearGradient>
  </defs>
</svg>
